<?xml version="1.0" encoding="utf-8"?>
<!-- Generator: Adobe Illustrator 25.2.0, SVG Export Plug-In . SVG Version: 6.00 Build 0)  -->
<svg version="1.1" id="Layer_1" xmlns="http://www.w3.org/2000/svg" xmlns:xlink="http://www.w3.org/1999/xlink" x="0px" y="0px"
	 viewBox="0 0 270.5 270.5" style="enable-background:new 0 0 270.5 270.5;" xml:space="preserve">
<style type="text/css">
	.st0{fill:#E8E7DD;}
	.st1{fill:#7F213A;}
	.st2{fill:#131212;}
</style>
<circle class="st0" cx="135.3" cy="135.3" r="135.3"/>
<g>
	<path class="st1" d="M96.9,96l-0.1,0.3c-2.4,6.4-3.4,13.3-4.3,19.9l-0.1,0.9c-0.1,0.9-0.2,1.8-0.3,2.6l-0.2,1.3
		c-1.3,10.1,4.8,16.9,11,22.9c3.2,3.1,6.9,5.8,10.4,8.5l1.3,1c4.7,3.5,10.3,5,17.7,4.6c3.2-0.2,6.3-0.4,9.2-1.5
		c3.7-1.4,6.7-3.8,9.9-6.3c0.6-0.5,1.2-1,1.8-1.5l0.8-0.6c2.5-2,5.2-4,7-6.7l0.1-0.2c0.4-0.4,0.8-0.8,1.2-1.2c0.1-0.3,0.2-0.7,0.2-1
		c1-6.7,0.7-13.2-3.3-18.9c-3.7-5.4-10.8-9.3-15.1-5.5c-3.2,2.8-5.6,5.6-5.4,9.9c0.1,1.8-0.5,4.9,1.7,5.9c-2.2,0.1-4.7-2.9-5.6-7.1
		c-0.9-3.9,1.5-5.5,3.6-8.7c1.7-2.7,4.2-5.5,4.9-8.1c2.2-9-0.2-13.8-8.4-16c-3.1-0.8-5.5-0.3-8.6,0.9c-1.6,0.7-3.7,0.9-4,4.2
		c-0.6,6.5,6.3,5.1,6.7,5.1c2.5-0.4,3,0.3,4.2,3.7c1.1,2.8-2.2,6.2-4.7,8.2c-4.8,3.8-11.9,0.8-14.9-4.8c-1.6-3-2-5.2-2-8.6
		c-0.1-4.5,1.1-6.6,3.5-10.7c1.6-2.6,2.3-4.4,4.4-2.3c1.7,1.7,5.8,1.6,7.2-0.5c1.6-2.5,1.1-4.6-0.3-7.3c-1.4-2.5-4.3-4-8-4.6
		c-2-0.3-2.6-0.5-4.5-0.1c-0.2-2,1-7.7,1.4-9.5c3-13.2,4.7-12.7,16.2-20.9c3-2.1,4.8-2,7-5c1.4-1.8,1.8-2.7,0.4-4.7
		c-1.3-1.9-6.1-1.3-7.9-0.9c-1.8,0.4-6.4,3.8-7.7,5c-2.1,1.9-4.3,4.5-5.9,6.9c-3.5,5.4-5.9,9-10.8,21.4c-2.9,7.2-3.9,11.6-5.9,17.9
		c0,0,0,0,0,0C100.4,85.8,96.9,96,96.9,96z"/>
	<path class="st2" d="M135.1,174.9c0-5.5,2.1-9,6.9-11.9c10.1-6.1,18.3-12.7,25-20.2c5-5.6,7-12.2,6.1-20.2
		c-1-8.7-2.9-17.3-4.6-25.6l-0.8-3.7c0-0.1,0-0.2,0-0.2c-0.1-1.3-0.8-2-1.9-2l-0.4,0l-0.3,0.2c-0.7,0.6-0.6,1.3-0.5,1.6
		c2.3,10.2,4.3,19.4,5,28.8c0.5,6.7-1.8,12.5-7.3,18c-0.4,0.4-0.8,0.8-1.2,1.2l-0.1,0.2c-1.8,2.7-4.4,4.8-7,6.7l-0.8,0.6
		c-0.6,0.5-1.2,1-1.8,1.5c-3.2,2.5-6.1,5-9.9,6.3c-3,1.1-6.1,1.4-9.2,1.5c-7.4,0.4-13-1-17.7-4.6l-1.3-1c-3.5-2.6-7.2-5.4-10.4-8.5
		c-6.3-6-12.3-12.7-11-22.9l0.2-1.3c0.1-0.9,0.2-1.8,0.3-2.6l0.1-0.9c1-6.6,2-13.5,4.3-19.9l0.1-0.3c0,0,3.6-10.2,4-12.3
		c0,0,0,0,0,0c0-0.1,0.5-2.9-0.4-4.2c0,0-1.7-2.4-2.2-1.9c-0.6,0.5-2.2,6.5-2.2,6.5c-0.5,2.2-1,4.4-1.5,6.5l-0.4,1.7
		c-2.3,9.9-4.6,20.1-5.7,30.5c-0.8,7.5,0.5,12.9,4.1,17.5c2.8,3.5,5.6,6.6,8.7,9.2c6.3,5.5,12.8,10.3,19.5,14.2
		c3.8,2.3,5.6,5,5.7,8.7c0.1,13.9,0.3,25.5,0.4,36.5c0.1,3.6-0.3,7.4-1,11.7c-1.2,6.7-5.1,10.7-11.8,11.9l-0.7,0.1
		c-4.2,0.7-8.5,1.5-12.6,2.9c-2.2,0.8-4.7,2.1-4.9,5.5c-0.2,3.4,2.6,4.8,4,5.6c4.3,2.2,9.1,3.7,14.3,4.4c5.3,0.7,10.8,1,16.3,1
		c5.6,0,11.3-0.3,17.1-1c5.4-0.6,10.4-2.2,14.8-4.7c1.8-1,3-2.4,3.3-4c0.3-1.5,0-3.1-1.1-4.6c-1-1.4-2.4-2-3.7-2.5l-0.3-0.1
		c-4.1-1.8-8.4-2.3-12.5-2.5c-6.2-0.4-10-3.7-11.9-10.3c-1-3.4-1.5-7.1-1.5-11.8c0-5.8,0.1-11.7,0.1-17.4
		C135,187.2,135.1,181,135.1,174.9z"/>
	<path class="st1" d="M153.6,25.3c2.3,0,4.3-1.9,4.4-4.2c0.1-2.4-2-4.4-4.4-4.4c-2.3,0-4.2,1.9-4.2,4.3
		C149.4,23.3,151.3,25.3,153.6,25.3z"/>
	<path class="st1" d="M148.4,46.2c1.4-0.2,2.5-1.1,2.5-2.7c0-1.7-1.1-2.6-2.7-2.6c-1.6,0-2.7,1-2.6,2.7
		C145.6,45.2,146.6,46.1,148.4,46.2z"/>
</g>
</svg>
