<?xml version="1.0" encoding="utf-8"?>
<!-- Generator: Adobe Illustrator 25.2.0, SVG Export Plug-In . SVG Version: 6.00 Build 0)  -->
<svg version="1.1" id="Layer_1" xmlns="http://www.w3.org/2000/svg" xmlns:xlink="http://www.w3.org/1999/xlink" x="0px" y="0px"
	 viewBox="0 0 185.8 55" style="enable-background:new 0 0 185.8 55;" xml:space="preserve">
<g>
	<path d="M32.5,11.9c0,8.6-7.4,11.9-14,11.9h-5.4v11.3c0.1,4.4,0.4,6.6,3.8,6.6V42H0v-0.3c3.4,0,3.8-2.2,3.8-6.6V6.9
		c0-4.4-0.4-6.6-3.8-6.6V0h19.1C24.9,0,32.5,3.4,32.5,11.9z M22.6,11.9c0-5.6-1.4-11.6-4.9-11.6h-0.8c-3.4,0-3.7,2.2-3.8,6.6v16.6
		c1.7,0,3.4,0,4.6,0C22.1,23.5,22.6,17.5,22.6,11.9z"/>
	<path d="M66.1,41.5v0.4c-0.7,0.4-1.9,0.7-3.1,0.7c-3.5,0-9.7-0.5-10.7-5.6c-1.1,2.4-2.9,4.3-5.4,5c-4.5,1.4-12.2,0.8-11.9-5.7
		c0.3-7.4,8.6-6.5,14.6-8.6c1.1-0.4,2-0.8,2.6-1.3c0-2,0-4,0-5.5c0-5.1,0.3-8.9-4.1-8.9c-3.9,0-6.4,1.4-7.3,3.2
		c-0.8,1.9,1.1,2.7,1.6,4.4c0.5,1.6-0.8,3.4-2.9,3c-1.8-0.4-2.9-2.6-1.9-5c1-2.2,4.3-5.8,10.7-5.8c5.6,0,13,1.9,13,10c0,6,0,14,0,14
		c0,4.1,0.1,6.4,2.9,6.4C64.9,42.2,65.8,41.8,66.1,41.5z M52.2,36.6c-0.1-0.4-0.1-0.7-0.1-1.1c0,0,0-4.3,0-8.6
		c-0.5,0.4-1.3,0.7-2.3,1.1c-2.9,1.1-6.4,1.6-6.7,7.1c-0.4,5.5,1.1,8.3,4.8,6.4C49.9,40.4,51.2,38.6,52.2,36.6z"/>
	<path d="M100,35.2c0,4.9,0.6,6.5,3.8,6.5V42H87.2v-0.3c3.2,0,3.7-1.7,3.8-6.6V21.7c0-4.1,0.2-9.3-4.1-9.3c-2.4,0-5,1.7-6.4,4.4
		c-0.1,1.3-0.1,2.9-0.1,4.9v13.4c0,4.9,0.5,6.6,3.8,6.6V42H67.6v-0.3c3.2,0,3.8-1.7,3.8-6.6V19.2c0-4.9-0.5-6.5-3.8-6.5v-0.3h13.9
		v0.3c-0.4,0.2-0.7,1.3-0.9,3.5c1.9-2.8,4.1-4.4,8.9-4.4c6.4,0,10.6,3.4,10.6,11V35.2L100,35.2z"/>
	<path d="M123.8,41.5v0.3c-0.9,0.5-2,0.8-3.8,0.8c-4.1,0-11-0.6-11-9.5c0,0,0-15.2,0-20.5h-2.8v-0.3c1,0,2.8,0,2.8,0s0-1.9,0-2.2
		c3.2,0,7.6-1.3,8.7-5.1h0.1h0.2v7.3h5.3v0.3H118v21.7c0,4,0.3,7.8,3.2,7.8C122.3,42.1,123.4,41.7,123.8,41.5z"/>
	<path d="M152,16.1c-0.5,2.3-3.4,2.6-4.8,1.7c-2.3-1.5-1.1-4.4-3.2-3.8c-2,0.6-4.4,3.9-5.3,7.1c0,0.1,0,13.9,0,13.9
		c0.1,4.9,0.6,6.6,3.8,6.6V42h-16.6v-0.3c3.2,0,3.8-1.7,3.8-6.6V19.2c0-4.9-0.5-6.5-3.8-6.5v-0.3h13.8v0.3c-0.5,0.3-0.9,2.6-1,7.7
		c1.6-5.2,6.1-8.4,8.5-8.6C150.8,11.5,152.8,13.4,152,16.1z"/>
	<path d="M185.8,12.4v0.3c-2.7,0.5-4.7,2.8-6.2,6.5c-0.8,2.3-7.3,20.5-8.2,22.9c-2.9,8-6.5,12.8-10.4,13c-2,0.1-4.3-1-4.6-3.3
		c-0.2-2.2,2.5-3.7,4.4-2.2c1.4,1.1,1.1,5.8,3.8,3.7c2.2-1.8,4.8-6.1,6.5-11.2h-1c0,0-9.5-20.8-10.8-23.7c-1.2-2.7-2.3-5.6-5-5.6
		v-0.3h13.9v0.3c-2,0-2.2,1-1,4c1.1,2.8,6.3,14.6,7,16.4c2.6-7.1,4.3-11.6,4.6-12.4c1.1-3.1,0.8-8-2-8v-0.3H185.8z"/>
</g>
</svg>
